<?xml version="1.0" encoding="UTF-8" standalone="no"?>
<svg width="71px" height="71px" viewBox="0 0 71 71" version="1.1" xmlns="http://www.w3.org/2000/svg" xmlns:xlink="http://www.w3.org/1999/xlink">
    <!-- Generator: Sketch 3.6.1 (26313) - http://www.bohemiancoding.com/sketch -->
    <title>Group</title>
    <desc>Created with Sketch.</desc>
    <defs></defs>
    <g id="Page-1" stroke="none" stroke-width="1" fill="none" fill-rule="evenodd">
        <g id="Gaminder-Copy" transform="translate(-63.000000, -408.000000)">
            <g id="Group-2" transform="translate(67.000000, 412.000000)">
                <g id="Group">
                    <circle id="Oval-1" stroke="#D3D3D3" stroke-width="4" fill="#FFFFFF" cx="31.5" cy="31.5" r="31.5"></circle>
                    <path d="M36.983581,31.9956009 L41.9684819,27.0157968 C43.3438394,25.6432713 43.3438394,23.4085183 41.9684819,22.0359928 C40.5913645,20.6546691 38.3598184,20.6546691 36.983581,22.0359928 L31.99956,27.0157968 L27.0155391,22.0359928 C25.6401816,20.6546691 23.4086355,20.6546691 22.0315181,22.0359928 C20.6561606,23.4085183 20.6561606,25.6432713 22.0315181,27.0157968 L27.0155391,31.9956009 L22.0315181,36.9842032 C20.6561606,38.3567287 20.6561606,40.5914817 22.0315181,41.9640072 C23.4086355,43.3453309 25.6401816,43.3453309 27.0155391,41.9640072 L31.99956,36.9842032 L36.983581,41.9640072 C38.3598184,43.3453309 40.5913645,43.3453309 41.9684819,41.9640072 C43.3438394,40.5914817 43.3438394,38.3567287 41.9684819,36.9842032 L36.983581,31.9956009" id="Fill-35" fill="#F6A623"></path>
                </g>
            </g>
        </g>
    </g>
</svg>