<?xml version="1.0" encoding="UTF-8" standalone="no"?>
<svg width="22px" height="22px" viewBox="0 0 22 22" version="1.1" xmlns="http://www.w3.org/2000/svg" xmlns:xlink="http://www.w3.org/1999/xlink">
    <!-- Generator: Sketch 3.6.1 (26313) - http://www.bohemiancoding.com/sketch -->
    <title>Fill 206</title>
    <desc>Created with Sketch.</desc>
    <defs></defs>
    <g id="Page-1" stroke="none" stroke-width="1" fill="none" fill-rule="evenodd">
        <g id="Gaminder-Copy" transform="translate(-157.000000, -108.000000)" fill="#4990E2">
            <path d="M176.25,110.75 L166.625,110.75 C166.625,109.231312 165.393687,108 163.875,108 L159.75,108 C158.231313,108 157,109.231312 157,110.75 L157,114.875 L179,114.875 L179,113.5 C179,111.981312 177.768687,110.75 176.25,110.75 L176.25,110.75 Z M157,127.25 C157,128.768688 158.231313,130 159.75,130 L176.25,130 C177.768687,130 179,128.768688 179,127.25 L179,116.25 L157,116.25 L157,127.25 L157,127.25 Z" id="Fill-206"></path>
        </g>
    </g>
</svg>